<svg xmlns="http://www.w3.org/2000/svg" viewBox="0 0 100 100" width="100" height="100"><defs></defs><g transform="matrix(1,0,0,1,0,0)">
<rect fill="#000000" x="0" y="0" width="100" height="100"/>
<g>
	<g>
		<path d="M20,80L 20,20 L 80,20 L 80,80 L 20,80 Z" fill="#cbcbcb"/>
	</g>
	<g>
		<path d="M0,0L 20,20 L 20,80 L 0,100 L 0,0 Z" fill="#bcbcbc"/>
	</g>
	<g>
		<path d="M0,-0L 100,-0 L 80,20 L 20,20 L 0,-0 Z" fill="#f2f6fc"/>
	</g>
	<g>
		<path d="M20,80L 80,80 L 100,100 L 0,100 L 20,80 Z" fill="#898989"/>
	</g>
	<g>
		<path d="M80,20L 100,0 L 100,100 L 80,80 L 80,20 Z" fill="#d8d8d8"/>
	</g>
	<g>
		<path d="M0,100L 0,0 L 100,0 L 100,100 L 0,100 Z" fill="#ffffff" fill-opacity="0" stroke="#000000" stroke-width="6"/>
	</g>
</g></g></svg>